<svg width="19" height="18" viewBox="0 0 19 18" fill="none" xmlns="http://www.w3.org/2000/svg">
<mask id="mask0_2049_1410" style="mask-type:alpha" maskUnits="userSpaceOnUse" x="0" y="0" width="19" height="18">
<rect x="0.5" width="18" height="18" fill="#D9D9D9"/>
</mask>
<g mask="url(#mask0_2049_1410)">
<path d="M12.6083 5.85281L5.60873 12.8453C5.50486 12.949 5.37436 12.9997 5.21723 12.9973C5.05998 12.9949 4.92942 12.9418 4.82555 12.8379C4.7218 12.7341 4.66992 12.6048 4.66992 12.45C4.66992 12.2952 4.7218 12.1659 4.82555 12.0621L11.818 5.0625H5.6708C5.51142 5.0625 5.3778 5.00856 5.26992 4.90069C5.16217 4.79281 5.1083 4.65919 5.1083 4.49981C5.1083 4.34031 5.16217 4.20675 5.26992 4.09912C5.3778 3.99137 5.51142 3.9375 5.6708 3.9375H13.0553C13.2474 3.9375 13.4084 4.00244 13.5383 4.13231C13.6683 4.26231 13.7333 4.42331 13.7333 4.61531V12C13.7333 12.1594 13.6794 12.2929 13.5715 12.4007C13.4636 12.5086 13.33 12.5625 13.1706 12.5625C13.0111 12.5625 12.8775 12.5086 12.7697 12.4007C12.6621 12.2929 12.6083 12.1594 12.6083 12V5.85281Z" fill="#C4C4C4"/>
</g>
</svg>
