<svg width="1440" height="1025" viewBox="0 0 1440 1025" fill="none" xmlns="http://www.w3.org/2000/svg">
<path d="M0.500045 0.5L0.5 1024.5M16.5001 0.5L16.5 1024.5M32.5001 0.5L32.5001 1024.5M48.5002 0.5L48.5001 1024.5M64.5002 0.5L64.5002 1024.5M80.5003 0.5L80.5002 1024.5M96.5003 0.5L96.5003 1024.5M112.5 0.5L112.5 1024.5M128.5 0.5L128.5 1024.5M144.5 0.5L144.5 1024.5M160.5 0.5L160.5 1024.5M176.501 0.5L176.5 1024.5M192.501 0.5L192.501 1024.5M208.501 0.5L208.501 1024.5M224.501 0.5L224.501 1024.5M240.501 0.5L240.501 1024.5M256.501 0.5L256.501 1024.5M272.501 0.5L272.501 1024.5M288.501 0.5L288.501 1024.5M304.501 0.5L304.501 1024.5M320.501 0.5L320.501 1024.5M336.501 0.5L336.501 1024.5M352.501 0.5L352.501 1024.5M368.501 0.5L368.501 1024.5M384.501 0.5L384.501 1024.5M400.501 0.5L400.501 1024.5M416.501 0.5L416.501 1024.5M432.501 0.5L432.501 1024.5M448.501 0.5L448.501 1024.5M464.501 0.5L464.501 1024.5M480.501 0.5L480.501 1024.5M496.501 0.5L496.501 1024.5M512.501 0.5L512.501 1024.5M528.501 0.5L528.501 1024.5M544.501 0.5L544.501 1024.5M560.501 0.5L560.501 1024.5M576.502 0.5L576.501 1024.5M592.502 0.5L592.502 1024.5M608.502 0.5L608.502 1024.5M624.502 0.5L624.502 1024.5M640.502 0.5L640.502 1024.5M656.502 0.5L656.502 1024.5M672.502 0.5L672.502 1024.5M688.502 0.5L688.502 1024.5M704.502 0.5L704.502 1024.5M720.502 0.5L720.502 1024.5M736.502 0.5L736.502 1024.5M752.502 0.5L752.502 1024.5M768.502 0.5L768.502 1024.5M784.502 0.5L784.502 1024.5M800.502 0.5L800.502 1024.5M816.502 0.5L816.502 1024.5M832.503 0.5L832.502 1024.5M848.503 0.5L848.503 1024.5M864.503 0.5L864.503 1024.5M880.503 0.5L880.503 1024.5M896.503 0.5L896.503 1024.5M912.503 0.5L912.503 1024.5M928.503 0.5L928.503 1024.5M944.503 0.5L944.503 1024.5M960.503 0.5L960.503 1024.5M976.503 0.5L976.503 1024.5M992.503 0.5L992.503 1024.5M1008.5 0.5L1008.5 1024.5M1024.5 0.5V1024.5M1040.5 0.5V1024.5M1056.5 0.5V1024.5M1072.5 0.5V1024.5M1088.5 0.5V1024.5M1104.5 0.5V1024.5M1120.5 0.5V1024.5M1136.5 0.5V1024.5M1152.5 0.5V1024.5M1168.5 0.5V1024.5M1184.5 0.5V1024.5M1200.5 0.5V1024.5M1216.5 0.5V1024.5M1232.5 0.5V1024.5M1248.5 0.5V1024.5M1264.5 0.5V1024.5M1280.5 0.5V1024.5M1296.5 0.5V1024.5M1312.5 0.5V1024.5M1328.5 0.5V1024.5M1344.5 0.5V1024.5M1360.5 0.5V1024.5M1376.5 0.5V1024.5M1392.5 0.5V1024.5M1408.5 0.5V1024.5M1424.5 0.5V1024.5M1440.5 0.5V1024.5M0 0H1440M0 16H1440M0 32H1440M0 48H1440M0 64H1440M0 80H1440M0 96H1440M0 112H1440M0 128H1440M0 144H1440M0 160H1440M0 176H1440M0 192H1440M0 208H1440M0 224H1440M0 240H1440M0 256H1440M0 272H1440M0 288H1440M0 304H1440M0 320H1440M0 336H1440M0 352H1440M0 368H1440M0 384H1440M0 400H1440M0 416H1440M0 432H1440M0 448H1440M0 464H1440M0 480H1440M0 496H1440M0 512H1440M0 528H1440M0 544H1440M0 560H1440M0 576H1440M0 592H1440M0 608H1440M0 624H1440M0 640H1440M0 656H1440M0 672H1440M0 688H1440M0 704H1440M0 720H1440M0 736H1440M0 752H1440M0 768H1440M0 784H1440M0 800H1440M0 816H1440M0 832H1440M0 848H1440M0 864H1440M0 880H1440M0 896H1440M0 912H1440M0 928H1440M0 944H1440M0 960H1440M0 976H1440M0 992H1440M0 1008H1440M0 1024H1440" stroke="#1A1A1A"/>
</svg>
